<svg width="512" height="512" viewBox="0 0 512 512" fill="none" xmlns="http://www.w3.org/2000/svg">
  <rect width="512" height="512" rx="128" fill="#2563eb"/>
  <path d="M256 128C211.817 128 176 163.817 176 208C176 252.183 211.817 288 256 288C300.183 288 336 252.183 336 208C336 163.817 300.183 128 256 128Z" fill="white"/>
  <path d="M352 352C352 309.565 317.24 275.2 274.667 275.2H237.333C194.76 275.2 160 309.565 160 352V384H352V352Z" fill="white"/>
  <circle cx="360" cy="200" r="40" fill="white" opacity="0.7"/>
  <circle cx="152" cy="200" r="40" fill="white" opacity="0.7"/>
  <path d="M384 328C384 308.118 368.882 292 349 292H335C335 292 335 320 335 352H424V328C424 328 408 328 384 328Z" fill="white" opacity="0.7"/>
  <path d="M128 328C128 308.118 143.118 292 163 292H177C177 292 177 320 177 352H88V328C88 328 104 328 128 328Z" fill="white" opacity="0.7"/>
</svg>
